<svg xmlns="http://www.w3.org/2000/svg" viewBox="0 0 278.77 108.11"><defs><style>.cls-1{fill:#fff}</style></defs><title>Asset 1</title><g id="Layer_2" data-name="Layer 2"><path class="cls-1" d="M39.85 13.46v7.07L14.42 46v14.79l5.71 5.58 5.3-5.3V50.59l14.42-14.42v17.41L13.33 80.23 0 66.77V26.65L26.52 0zM25.43 28v-8.42l-5.71-5.71-9 9.11 3.67 3.81V39zm66.5-17.8V84l-24.07 24.11-12.24-12.24 10.2-10.34 8.84 8.84 2.72-2.86V65l-12 12-13.3-13.36V16.32l-6-6.12L56.3 0l10.2 10.2v47.32l5.71 5.71 5.17-5.17V10.47l7.34-7.34zm48.95 3.26v7.07L115.45 46v14.79l5.71 5.58 5.3-5.3V50.59l14.42-14.42v17.41l-26.52 26.65L101 66.77V26.65L127.56 0zM126.47 28v-8.42l-5.71-5.71-9 9.11 3.67 3.81V39zm60.1 25.58l-26.38 26.65-13.46-13.46v-3.94L161.28 50v10.65l5.58 5.71 7.75-7.75-25-25.16V23.8L173.25 0l10.88 11.56v2.86l-12 10.47v-5.3l-5.71-5.71-7.62 7.75 27.74 26.79zm45.56-40.12v7.07L206.7 46v14.79l5.71 5.58 5.3-5.3V50.59l14.42-14.42v17.41l-26.52 26.65-13.33-13.46V26.65L218.8 0zM217.72 28v-8.42L212 13.87 203 23l3.67 3.81V39zm61.05-14.54v7.07L253.34 46v14.79l5.71 5.58 5.3-5.3V50.59l14.42-14.42v17.41l-26.52 26.65-13.32-13.46V26.65L265.45 0zM264.36 28v-8.42l-5.71-5.71-9 9.11 3.67 3.81V39z" id="expanded"/></g></svg>