<svg width="76" height="76" viewBox="0 0 76 76" xmlns="http://www.w3.org/2000/svg"><title>Facebook</title><path d="M37.97 0C17 0 0 17 0 37.97c0 20.96 17 37.96 37.97 37.96 20.96 0 37.96-17 37.96-37.96C75.93 17 58.93 0 37.97 0zm18.47 54.02c0 1.12-.55 2.311-1.66 2.311h-9.34v-14h4.75l.72-6h-5.47V32.75c0-1.6.43-2.419 2.73-2.419h3.27V25.1c-1-.07-2.55-.22-4.58-.22-4.22 0-7.42 2.58-7.42 7.32v4.131h-5v6h5v14H22.12c-1.12 0-1.68-1.191-1.68-2.311V21.36c0-1.12.56-2.029 1.68-2.029h32.66c1.11 0 1.66.909 1.66 2.029v32.66z" fill="#FFF" fill-rule="evenodd"/></svg>