<svg width="76" height="76" viewBox="0 0 76 76" xmlns="http://www.w3.org/2000/svg"><title>Instagram</title><g fill="#FFF" fill-rule="evenodd"><path d="M37.97 0C17 0 0 17 0 37.97c0 20.96 17 37.96 37.97 37.96 20.96 0 37.96-17 37.96-37.96C75.93 17 58.93 0 37.97 0zm19.47 51.85c0 2.4-2.14 4.02-4.54 4.02H24.95c-2.41 0-4.51-1.62-4.51-4.02V23.88c0-2.4 2.1-4.01 4.51-4.01H52.9c2.4 0 4.54 1.61 4.54 4.01v27.97z"/><path d="M31.48 38.04c0-3.89 3.15-7.04 7.04-7.04 3.9 0 7.06 3.15 7.06 7.04 0 3.88-3.16 7.03-7.06 7.03-3.89 0-7.04-3.15-7.04-7.03zM52 28.85A1.15 1.15 0 0 1 50.85 30h-3.7A1.15 1.15 0 0 1 46 28.85v-3.7c0-.635.515-1.15 1.15-1.15h3.7c.635 0 1.15.515 1.15 1.15v3.7zM48.79 35H53v16.74c0 .64-.14 1.26-.77 1.26h-27.5c-.63 0-.73-.62-.73-1.26V35h4.17c-.6 0-.8 2.24-.8 3.26 0 6.13 5.01 11.02 11.15 11.02 6.16 0 11.16-4.835 11.16-10.965 0-1.02-.15-3.315-.89-3.315z"/></g></svg>