<?xml version="1.0" encoding="UTF-8"?>
<svg width="14px" height="14px" viewBox="0 0 14 14" version="1.1" xmlns="http://www.w3.org/2000/svg" xmlns:xlink="http://www.w3.org/1999/xlink">
    <!-- Generator: Sketch 50 (54983) - http://www.bohemiancoding.com/sketch -->
    <title>cart-simple</title>
    <desc>Created with Sketch.</desc>
    <defs></defs>
    <g id="Symbols" stroke="none" stroke-width="1" fill="none" fill-rule="evenodd">
        <g id="Nav" transform="translate(-1272.000000, -71.000000)" fill="#FFFFFF" fill-rule="nonzero">
            <g id="eCommerce-Nav-Items">
                <g transform="translate(1204.000000, 68.000000)">
                    <g id="Group-5" transform="translate(68.000000, 0.000000)">
                        <g id="cart-simple" transform="translate(0.000000, 3.000000)">
                            <circle id="Oval" cx="3.5" cy="12.5" r="1.5"></circle>
                            <circle id="Oval" cx="11.5" cy="12.5" r="1.5"></circle>
                            <path d="M11.6665645,10 L3.49996935,10 C3.20772191,10 2.96039074,9.78176471 2.92189108,9.48941176 L1.8229007,1.17647059 L0,1.17647059 L0,0 L2.3333129,0 C2.62556034,0 2.87289151,0.218235294 2.91139117,0.510588235 L3.23280502,2.94117647 L13.4165492,2.94117647 C13.6008809,2.94117647 13.7747127,3.02882353 13.8843784,3.17823529 C13.9946274,3.32764706 14.0284605,3.52058824 13.9753776,3.69823529 L12.2253929,9.58058824 C12.1513103,9.82941176 11.9238122,10 11.6665645,10 Z" id="Shape"></path>
                        </g>
                    </g>
                </g>
            </g>
        </g>
    </g>
</svg>