<svg xmlns="http://www.w3.org/2000/svg" viewBox="0 0 278.77 108.11"><defs><style>.cls-1{fill:#fff;}</style></defs><title>Asset 1</title><g id="Layer_2" data-name="Layer 2"><g id="expanded"><path class="cls-1" d="M39.85,13.46v7.07L14.42,46V60.79l5.71,5.58,5.3-5.3V50.59L39.85,36.17V53.58L13.33,80.23,0,66.77V26.65L26.52,0ZM25.43,28V19.58l-5.71-5.71-9,9.11,3.67,3.81V39Z"/><path class="cls-1" d="M91.93,10.2V84L67.86,108.11,55.62,95.87l10.2-10.34,8.84,8.84,2.72-2.86V65l-12,12L52.08,63.64V16.32l-6-6.12L56.3,0,66.5,10.2V57.52l5.71,5.71,5.17-5.17V10.47l7.34-7.34Z"/><path class="cls-1" d="M140.88,13.46v7.07L115.45,46V60.79l5.71,5.58,5.3-5.3V50.59l14.42-14.42V53.58L114.36,80.23,101,66.77V26.65L127.56,0ZM126.47,28V19.58l-5.71-5.71-9,9.11,3.67,3.81V39Z"/><path class="cls-1" d="M186.57,53.58,160.19,80.23,146.73,66.77V62.83L161.28,50V60.65l5.58,5.71,7.75-7.75-25-25.16V23.8L173.25,0l10.88,11.56v2.86l-12,10.47v-5.3l-5.71-5.71-7.62,7.75,27.74,26.79Z"/><path class="cls-1" d="M232.13,13.46v7.07L206.7,46V60.79l5.71,5.58,5.3-5.3V50.59l14.42-14.42V53.58L205.61,80.23,192.28,66.77V26.65L218.8,0ZM217.72,28V19.58L212,13.87,203,23l3.67,3.81V39Z"/><path class="cls-1" d="M278.77,13.46v7.07L253.34,46V60.79l5.71,5.58,5.3-5.3V50.59l14.42-14.42V53.58L252.25,80.23,238.93,66.77V26.65L265.45,0ZM264.36,28V19.58l-5.71-5.71-9,9.11,3.67,3.81V39Z"/></g></g></svg>