<?xml version="1.0" encoding="UTF-8"?>
<svg width="76px" height="76px" viewBox="0 0 76 76" version="1.1" xmlns="http://www.w3.org/2000/svg" xmlns:xlink="http://www.w3.org/1999/xlink">
    <!-- Generator: Sketch 50 (54983) - http://www.bohemiancoding.com/sketch -->
    <title>Instagram</title>
    <desc>Created with Sketch.</desc>
    <defs></defs>
    <g id="Home" stroke="none" stroke-width="1" fill="none" fill-rule="evenodd">
        <g id="1440w14f14x3g" transform="translate(-738.000000, -3044.000000)" fill="#FFFFFF">
            <g id="Footer" transform="translate(0.000000, 2893.000000)">
                <g id="Social" transform="translate(487.000000, 28.000000)">
                    <g id="Social-Icons" transform="translate(133.000000, 123.000000)">
                        <g id="Instagram" transform="translate(118.000000, 0.000000)">
                            <path d="M37.97,0 C17,0 1.13686838e-13,17 1.13686838e-13,37.97 C1.13686838e-13,58.93 17,75.93 37.97,75.93 C58.93,75.93 75.93,58.93 75.93,37.97 C75.93,17 58.93,0 37.97,0 L37.97,0 Z M57.44,51.85 C57.44,54.25 55.3,55.87 52.9,55.87 L24.95,55.87 C22.54,55.87 20.44,54.25 20.44,51.85 L20.44,23.88 C20.44,21.48 22.54,19.87 24.95,19.87 L52.9,19.87 C55.3,19.87 57.44,21.48 57.44,23.88 L57.44,51.85 L57.44,51.85 Z" id="Instagram-Circle"></path>
                            <path d="M31.48,38.04 C31.48,34.15 34.63,31 38.52,31 C42.42,31 45.58,34.15 45.58,38.04 C45.58,41.92 42.42,45.07 38.52,45.07 C34.63,45.07 31.48,41.92 31.48,38.04 Z M52,28.85 C52,29.485 51.485,30 50.85,30 L47.15,30 C46.515,30 46,29.485 46,28.85 L46,25.15 C46,24.515 46.515,24 47.15,24 L50.85,24 C51.485,24 52,24.515 52,25.15 L52,28.85 Z M48.79,35 L53,35 L53,51.74 C53,52.38 52.86,53 52.23,53 L24.73,53 C24.1,53 24,52.38 24,51.74 L24,35 L28.17,35 C27.57,35 27.37,37.24 27.37,38.26 C27.37,44.39 32.38,49.28 38.52,49.28 C44.68,49.28 49.68,44.445 49.68,38.315 C49.68,37.295 49.53,35 48.79,35 Z"></path>
                        </g>
                    </g>
                </g>
            </g>
        </g>
    </g>
</svg>